<svg xmlns="http://www.w3.org/2000/svg" width="41.429" height="20" viewBox="0 0 41.429 20"><defs><style>.a{fill:#fff;}.b{fill:#f7931e;}</style></defs><g transform="translate(301.653 719.105)"><circle class="a" cx="4.286" cy="4.286" r="4.286" transform="translate(-274.51 -713.39)"/><path class="a" d="M-270.224-719.1h-21.429a10,10,0,0,0-10,10,10,10,0,0,0,10,10h21.429a10,10,0,0,0,10-10A10,10,0,0,0-270.224-719.1Zm0,17.143a7.143,7.143,0,0,1-7.143-7.143,7.144,7.144,0,0,1,7.143-7.143,7.143,7.143,0,0,1,7.143,7.143A7.142,7.142,0,0,1-270.224-701.962Z"/><g transform="translate(-298.795 -716.247)"><path class="b" d="M-291.227-713.489a3.379,3.379,0,0,0-2.406-1,3.376,3.376,0,0,0-2.4,1,3.376,3.376,0,0,0-1,2.4,3.379,3.379,0,0,0,1,2.406,3.381,3.381,0,0,0,2.4,1,3.385,3.385,0,0,0,2.406-1,3.385,3.385,0,0,0,1-2.406A3.382,3.382,0,0,0-291.227-713.489Z" transform="translate(300.776 718.227)"/><rect class="b" width="2.23" height="0.868" rx="0.268" transform="translate(10.323 3.375) rotate(-45)"/><rect class="b" width="0.868" height="2.23" rx="0.268" transform="translate(6.727)"/><rect class="b" width="0.868" height="2.23" rx="0.268" transform="translate(1.798 2.386) rotate(-44.998)"/><rect class="b" width="2.23" height="0.868" rx="0.268" transform="translate(0 6.69)"/><rect class="b" width="2.23" height="0.868" rx="0.268" transform="translate(1.772 11.873) rotate(-45)"/><rect class="b" width="0.868" height="2.23" rx="0.268" transform="translate(6.69 12.055)"/><circle class="b" cx="4.269" cy="4.269" r="4.269" transform="translate(2.874 2.874)"/><rect class="b" width="0.868" height="2.23" rx="0.268" transform="matrix(0.707, -0.707, 0.707, 0.707, 10.296, 10.937)"/><rect class="b" width="2.23" height="0.868" rx="0.268" transform="translate(12.055 6.727)"/></g></g></svg>