<svg xmlns="http://www.w3.org/2000/svg" width="199.752" height="23.828" viewBox="0 0 199.752 23.828">
  <g id="Group_3608" data-name="Group 3608" transform="translate(0 0)">
    <path id="Path_2882" data-name="Path 2882" d="M-159.458-442.014a6.888,6.888,0,0,0-.161,4.1.821.821,0,0,0,.944.637,4.707,4.707,0,0,0,1.617-.387,39.4,39.4,0,0,0,3.557-2.325c1.31-.963,2.546-2.027,3.824-3.034a2.9,2.9,0,0,1,.849-.506c.552-.18.686-.766,1.1-1.037a2.2,2.2,0,0,0,.687-.937c.1-.192.43-.251.58-.432,1-1.209,1.936-2.471,2.973-3.645a15.811,15.811,0,0,1,3.731-3.216,2.466,2.466,0,0,1,3.222.571c.416.56.346.87-.2,1.283a8.067,8.067,0,0,0-.828.837,16.926,16.926,0,0,1-1.233,1.228c-.191.158-.52.139-.773.236a1.892,1.892,0,0,0-.674.351c-.883.889-1.794,1.76-2.582,2.729a4.975,4.975,0,0,0-.8,1.772,1.737,1.737,0,0,0,.575,1.835c.809.726,1.66,1.411,2.415,2.19a9.707,9.707,0,0,1,1.226,1.727.629.629,0,0,1-.1.606,6.447,6.447,0,0,1-1.715,1.018c-1.358.414-2.751.725-4.144,1.006a6.934,6.934,0,0,1-3.382-.31,2,2,0,0,1-1.354-1.71.672.672,0,0,1,.283-.513c.073-.053.308.121.473.186a1.965,1.965,0,0,0,.525.182,14.526,14.526,0,0,0,5.839-.98c.471-.161.953-.292,1.606-.49a11.042,11.042,0,0,1-4.045-4.558c-.4.442-.725.821-1.076,1.169a35.865,35.865,0,0,1-8.138,6.332,5.133,5.133,0,0,1-5.874-.279,14.522,14.522,0,0,1-1.812-1.977c-.228.185-.588.485-.96.772a3.24,3.24,0,0,1-.34.16,2.284,2.284,0,0,0-.684.445c-.872,1.15-3.6,2.01-5.059,1.25-1.367-.715-1.745-1.394-1.279-3.006a34.872,34.872,0,0,1,1.773-4.416,39.016,39.016,0,0,0,2.443-7.405,1.938,1.938,0,0,0,0-.31c-.364.3-.642.565-.959.775-1.348.892-1.986,2.362-2.923,3.585-.842,1.1-1.58,2.278-2.388,3.4-.232.324-.571.569-.825.879a5.732,5.732,0,0,0-1.259,2.132.961.961,0,0,1-.39.536c-.793.469-.854,1.293-1.074,2.049a4.939,4.939,0,0,1-.451,1.192c-.1.166-.433.232-.672.266-1.105.158-1.812-.611-1.462-1.65.677-2.007,1.438-3.985,2.115-5.992.448-1.328.808-2.686,1.211-4.03.268-.894.563-1.781.8-2.683a6.853,6.853,0,0,0,.077-1.236l-1.778.119.269-.36-.377-.3a2.545,2.545,0,0,1,2.436-.332,1.881,1.881,0,0,1,1.432,2.507c-.314,1.54-.639,3.078-.957,4.617a3.294,3.294,0,0,0-.021.345c.145-.174.226-.253.286-.346.925-1.429,1.793-2.9,2.79-4.277a17.343,17.343,0,0,1,2.2-2.39,2.105,2.105,0,0,1,2.456-.385,8.691,8.691,0,0,1,1.034.43,2.131,2.131,0,0,1,.745,2.417c-.294,1.041-.578,2.092-.973,3.1-.91,2.319-1.907,4.6-2.821,6.921-.323.82-.507,1.7-.754,2.547l.186.149a7.483,7.483,0,0,0,1.754-.625,12.747,12.747,0,0,0,4.25-4.024c.489-.849.68-1.865,1.115-2.751a32.615,32.615,0,0,1,4.2-6.9,4.417,4.417,0,0,1,4.21-1.266,3.3,3.3,0,0,1,2.067,2.429,4.746,4.746,0,0,1-1.288,4.308c-1.1,1.3-2.339,2.483-3.549,3.685a5.9,5.9,0,0,1-1.232.876,1.741,1.741,0,0,1-2.168-.467Zm.512-1.554.139.112c.3-.11.689-.138.9-.344a22.735,22.735,0,0,0,3.928-4.375,3.6,3.6,0,0,0,.4-2.876,11.182,11.182,0,0,0-1.509,1.411c-1.245,1.7-2.429,3.452-3.61,5.2A2.944,2.944,0,0,0-158.946-443.568Zm14.788,6.8c-.328-.516-1.534-.423-2.213.1.208,0,.492-.084.674.016C-145.135-436.349-144.675-436.62-144.158-436.769Zm2.363-12.6a7.3,7.3,0,0,0-2.45,2.614Z" transform="translate(237.96 459.14)" fill="#fff"/>
    <path id="Path_2883" data-name="Path 2883" d="M223.658-442.159c.262-.161.432-.274.61-.371a1.758,1.758,0,0,1,.388-.057c-.125.4-.2.717-.327,1.019-.211.51-.44,1.013-.682,1.509a5.39,5.39,0,0,1-.6,1.076q-2.386,2.913-4.815,5.791a4.211,4.211,0,0,1-3.938,1.31,2.176,2.176,0,0,1-1.63-1.419,13.177,13.177,0,0,1-.919-2.278,4.238,4.238,0,0,1,.073-1.338,2.928,2.928,0,0,0-.024-.335c-.778.954-1.463,1.885-2.243,2.727-.864.932-1.792,1.811-2.738,2.661a2.316,2.316,0,0,1-2.744.487,2.982,2.982,0,0,1-1.8-2.587c-.015-.165-.019-.332-.033-.6-.367.342-.66.644-.982.911a21.976,21.976,0,0,1-2.453,1.959,3.925,3.925,0,0,1-2.963.495,3.23,3.23,0,0,1-.971-.522c-.216-.143-.374-.374-.59-.519-1.45-.972-1.576-2.379-1.238-3.893a28.847,28.847,0,0,1,2.712-7.952c.291-.52.49-1.091.742-1.633a.729.729,0,0,1,.235-.3,2.363,2.363,0,0,1,1.575.629.738.738,0,0,0,.215.29,1.273,1.273,0,0,1,.435,1.461,2.883,2.883,0,0,1-.246.628,33.96,33.96,0,0,0-2.46,6.275c-.279.884-.47,1.8-.669,2.705-.037.169.079.371.124.558.167-.059.334-.116.5-.178.5-.189,1.006-.381,1.436-.544a2.679,2.679,0,0,1,.358-.667c1.631-1.6,3.282-3.18,4.919-4.775,1.006-.981,2.042-1.937,2.977-2.982.592-.662.985-1.5,1.539-2.2a21.961,21.961,0,0,1,1.889-2.074,1.508,1.508,0,0,1,.909-.337c1.857-.1,2.194.1,3.255,1.711.131.2.226.42.4.745a17.817,17.817,0,0,0,1.178-1.563c.319-.534.525-1.136.8-1.7a.387.387,0,0,1,.25-.182,7.3,7.3,0,0,1,1-.114c.443-.013.739.146.572.67a.847.847,0,0,1,.868,1.084A9.731,9.731,0,0,1,218-445.11c-.8,1.86-1.692,3.684-2.391,5.581a46.752,46.752,0,0,0-1.259,4.586,1.958,1.958,0,0,0,.083.683,2.877,2.877,0,0,0,.652-.306c.863-.71,1.737-1.413,2.547-2.182a19.567,19.567,0,0,0,1.492-1.723c.226-.271.416-.572.643-.842a.536.536,0,0,1,.343-.21c.631.026.647.014.394-.588a.827.827,0,0,1,0-.2l.653.075c-.207-1.033.675-1.41,1.216-2a3.957,3.957,0,0,1,.658-.74,2.1,2.1,0,0,1,.813-.125c-.032.231-.061.462-.1.693A2.135,2.135,0,0,1,223.658-442.159Zm-18.386,7.967,4.071-4.391.275.391.374-.474c-.466-.2-.486-.464-.14-.822.365-.379.674-.812,1.044-1.185.158-.16.433-.2.608-.349A2.555,2.555,0,0,0,212-441.6c-.367-.383.008-.618.154-.883.121-.22.282-.419.493-.725-1.022-.053-1.012-.738-.963-1.41C210.164-444.311,205.654-436.627,205.272-434.192Zm-5.5-1.281c.994-.242,4.767-4.266,4.844-5.056Z" transform="translate(-91.996 454.86)" fill="#fff"/>
    <path id="Path_2884" data-name="Path 2884" d="M-324.055-442.274a8.362,8.362,0,0,1-1.463,4.623,15.477,15.477,0,0,1-2.764,3.325,12.8,12.8,0,0,1-3.926,2.622,2.178,2.178,0,0,1-2.008-.268,20.992,20.992,0,0,1-3.437-2.384c-2.113-2.064-3.9-4.388-4.169-7.5a6.491,6.491,0,0,1,1.259-4.548,4.736,4.736,0,0,1,5.809-1.377,4.265,4.265,0,0,1,1.482,1.319c.227.347.42.285.646.006a4.95,4.95,0,0,1,1.716-1.417,4.312,4.312,0,0,1,4.337.344A5.542,5.542,0,0,1-324.055-442.274Z" transform="translate(382.541 454.837)" fill="#fff"/>
    <path id="Path_2885" data-name="Path 2885" d="M-488.009-438.039q0-3.628,0-7.256c0-.833-.006-.836.815-.836,2.606,0,5.212.027,7.818-.008a5.448,5.448,0,0,1,5.251,4.3,17.748,17.748,0,0,1,.194,6.912,6.112,6.112,0,0,1-1.658,3.514A5.457,5.457,0,0,1-478-430.127c-1.672.455-3.373.148-5.058.212-1.423.054-2.85-.009-4.274.029-.529.014-.685-.168-.682-.672C-488-433.051-488.009-435.545-488.009-438.039Zm4.767-.083h.006c0,1.2-.007,2.4,0,3.6.005.612.169.782.781.753.814-.039,1.628-.11,2.439-.2A1.349,1.349,0,0,0-478.838-435a9.964,9.964,0,0,0,.031-5.976,2.054,2.054,0,0,0-.955-1.068c-.973-.484-2.055-.176-3.091-.192-.127,0-.366.33-.372.512C-483.258-440.521-483.242-439.321-483.242-438.121Z" transform="translate(512.254 452.913)" fill="#fff"/>
    <g id="Group_3607" data-name="Group 3607" transform="translate(138.899 6.256)">
      <path id="Path_2886" data-name="Path 2886" d="M833.3-432.784c-1.471.053-2.884.111-4.3.151-.5.014-.74-.316-.927-.741q-1.051-2.39-2.14-4.762c-.167-.364-1.413-.55-1.657-.246a.854.854,0,0,0-.107.5c-.011,1.525-.011,3.049-.015,4.574,0,.385-.655.708-1.126.68a25.943,25.943,0,0,0-2.942-.037c-.672.036-.92-.076-.92-.751q0-5.987.007-11.975c0-1.212.006-2.425,0-3.637,0-.5.18-.723.734-.717,2.407.026,4.814-.01,7.22.014a6.228,6.228,0,0,1,3.715.97,4.3,4.3,0,0,1,1.193,1.453,7.413,7.413,0,0,1,.343,5.647,4.275,4.275,0,0,1-1.319,1.92c-.347.3-.786.388-.569.943.146.374.375.716.552,1.079q1.121,2.3,2.23,4.6A1.309,1.309,0,0,1,833.3-432.784Zm-7.639-12.747v0a4.131,4.131,0,0,0-.989.021c-.2.051-.489.291-.5.466-.062.754-.045,1.516-.042,2.275,0,.364.161.562.575.543.623-.028,1.25.028,1.87-.021a1.128,1.128,0,0,0,.8-.342,2.454,2.454,0,0,0,.2-2.239c-.279-.671-.86-.761-1.5-.706C825.937-445.521,825.8-445.531,825.663-445.531Z" transform="translate(-786.669 449.861)" fill="#fff"/>
      <path id="Path_2887" data-name="Path 2887" d="M656.992-432.9a5.3,5.3,0,0,1,.126-.915c.419-1.273.879-2.533,1.294-3.807.84-2.573,1.66-5.152,2.489-7.729.422-1.311.861-2.617,1.265-3.933a.666.666,0,0,1,.751-.553q2.437.03,4.875,0a.7.7,0,0,1,.763.49c.3.819.6,1.639.865,2.468.644,1.981,1.271,3.967,1.906,5.951.533,1.664,1.062,3.33,1.6,4.992.258.8.533,1.586.81,2.375.191.544.081.687-.493.7-1.249.037-2.5.1-3.746.144a.807.807,0,0,1-.862-.629c-.161-.522-.315-1.048-.453-1.576-.1-.381-.266-.591-.719-.581q-2.055.044-4.111,0c-.519-.01-.781.135-.858.69a6.047,6.047,0,0,1-.438,1.508.825.825,0,0,1-.577.44c-1.151.051-2.3.045-3.457.044C657.7-432.815,657.38-432.864,656.992-432.9Zm8.53-12.114-.208-.013a2.2,2.2,0,0,0-.226.438c-.378,1.45-.741,2.9-1.117,4.356-.124.48.052.712.542.717.469.005.939.017,1.408.012.8-.009.922-.166.729-.962-.28-1.154-.574-2.3-.861-3.456C665.7-444.283,665.61-444.647,665.522-445.011Z" transform="translate(-642.749 449.939)" fill="#fff"/>
      <path id="Path_2888" data-name="Path 2888" d="M956.645-440.747c0-1.625-.005-3.249,0-4.874a3.725,3.725,0,0,1,2.787-3.685,21.5,21.5,0,0,1,3.893-.261c1.855.014,3.708.155,5.562.231.409.017.616.2.618.607,0,.919,0,1.838.009,2.757.006.474-.211.665-.678.66-1.82-.022-3.64-.03-5.46-.039a3.678,3.678,0,0,0-.761.037c-.477.1-.892.217-.977.862-.154,1.169.009,1.4,1.188,1.437,1.659.053,3.316.146,4.975.2.359.011.5.144.493.482-.005.841-.009,1.683,0,2.524,0,.394-.116.578-.572.589-1.834.045-3.667.147-5.5.205-.339.011-.549.127-.543.454a3.406,3.406,0,0,0,.149,1.367c.257.532.907.5,1.413.512,1.8.03,3.6,0,5.4-.005.867,0,.886.024.877.894-.008.762-.048,1.527,0,2.287a.683.683,0,0,1-.746.811c-2.751.1-5.5.213-8.255.239a4.1,4.1,0,0,1-2.956-1.253,3.485,3.485,0,0,1-.823-2.05c-.117-1.655-.037-3.323-.037-4.986Z" transform="translate(-908.665 449.7)" fill="#fff"/>
      <path id="Path_2889" data-name="Path 2889" d="M540.315-437.729c.861,0,1.722.017,2.583-.008.375-.011.566.136.564.491-.006.919-.008,1.84-.075,2.755-.013.176-.285.4-.486.48a4.842,4.842,0,0,1-1.118.289,26.214,26.214,0,0,1-6.113.191,4.783,4.783,0,0,1-3.63-1.889,8.49,8.49,0,0,1-1.237-3.154,18.838,18.838,0,0,1-.2-5.729,8.566,8.566,0,0,1,1.3-4.186,4.238,4.238,0,0,1,2.884-1.913,16.225,16.225,0,0,1,1.935-.331,37.7,37.7,0,0,1,3.8.14,15.823,15.823,0,0,1,2.264.464.8.8,0,0,1,.687.825c0,.8-.01,1.6-.012,2.406,0,.53-.322.572-.75.544-1.595-.1-3.19-.21-4.786-.263a2.041,2.041,0,0,0-2.2,1.728,14.019,14.019,0,0,0,.123,5.933,1.775,1.775,0,0,0,1.656,1.253c.933.074,1.877.018,2.816.018Z" transform="translate(-530.474 450.738)" fill="#fff"/>
    </g>
    <path id="Path_2890" data-name="Path 2890" d="M-627.02-448.422a8.787,8.787,0,0,0-2.974,3.156q-1.438,2.216-2.929,4.4c-.5.729-1.076,1.4-1.593,2.122a5.079,5.079,0,0,0-.335.738c-.1.2-.173.461-.34.566-.818.516-.865,1.375-1.06,2.182a2.7,2.7,0,0,1-.436,1.08,1.3,1.3,0,0,1-.852.255,1.1,1.1,0,0,1-1.188-1.412c.587-1.9,1.219-3.782,1.881-5.655a20.588,20.588,0,0,0,1.427-5.761,7.763,7.763,0,0,0-.107-1.789,5.965,5.965,0,0,0-.494-1.072c-.086-.209-.217-.523-.128-.649a.788.788,0,0,1,.655-.265,2.238,2.238,0,0,1,1.87,1.563,9.284,9.284,0,0,1,.142,4.506,13.183,13.183,0,0,0-.237,1.592c.563-.9,1.176-1.765,1.678-2.694a15.949,15.949,0,0,1,2.927-3.9,2.566,2.566,0,0,1,3.662-.066,2.116,2.116,0,0,1,.571,2.227,26.341,26.341,0,0,1-.915,3.119c-.774,2.09-1.637,4.147-2.42,6.234a22.033,22.033,0,0,0-.776,2.633c-.144.605.031.843.656.793a8.21,8.21,0,0,0,1.875-.46,8.518,8.518,0,0,0,.855-.509.564.564,0,0,1,.447.055c.048.027.021.273-.035.388a3.343,3.343,0,0,1-2.534,1.633,3.045,3.045,0,0,1-2.081-.229,2.177,2.177,0,0,1-1.212-3c.484-1.451,1.042-2.883,1.658-4.284A37.988,37.988,0,0,0-627.02-448.422Z" transform="translate(646.045 456.813)" fill="#fff"/>
    <path id="Path_2891" data-name="Path 2891" d="M-703.292-438.3c0-2.514.007-5.028-.008-7.542,0-.372.107-.48.479-.476,1.256.014,2.513,0,3.77-.024.364-.007.513.137.511.49,0,.732.007,1.463.008,2.195q0,6.276.005,12.551c0,.15-.017.3-.013.45.01.417-.16.6-.605.592-1.106-.021-2.213-.008-3.32,0-.774.007-.84-.043-.84-.81q0-3.714,0-7.428Z" transform="translate(703.307 453.093)" fill="#fff"/>
    <path id="Path_2892" data-name="Path 2892" d="M243.158-498.757c-.387.062-.68.006-.71-.47a.325.325,0,0,0-.214-.221c-.505-.088-.516-.458-.43-.811a18.239,18.239,0,0,1,.637-2.2c.446-1.167.975-2.3,1.446-3.46.165-.406.3-.554.643-.141a.829.829,0,0,0,.569.309c.888-.058,1.121.676,1.447,1.22.126.211-.011.663-.156.939-.668,1.275-1.381,2.526-2.078,3.785-.1.18-.217.351-.3.538C243.847-498.886,243.606-498.645,243.158-498.757Z" transform="translate(-135.367 506.309)" fill="#fff"/>
  </g>
</svg>
