<svg xmlns="http://www.w3.org/2000/svg" width="46" height="36" viewBox="0 0 46 36">
  <g id="Group_3603" data-name="Group 3603" transform="translate(1 1)">
    <rect id="Rectangle_2816" data-name="Rectangle 2816" width="44" height="28" rx="3" transform="translate(0 6)" fill="none" stroke="#fff" stroke-linecap="round" stroke-linejoin="round" stroke-width="2"/>
    <line id="Line_20" data-name="Line 20" y1="9" transform="translate(10 6)" fill="none" stroke="#fff" stroke-linecap="round" stroke-linejoin="round" stroke-width="2"/>
    <line id="Line_21" data-name="Line 21" y1="5" transform="translate(10 29)" fill="none" stroke="#fff" stroke-linecap="round" stroke-linejoin="round" stroke-width="2"/>
    <line id="Line_22" data-name="Line 22" y2="28" transform="translate(34 6)" fill="none" stroke="#fff" stroke-linecap="round" stroke-linejoin="round" stroke-width="2"/>
    <path id="Path_2880" data-name="Path 2880" d="M147,61V57a2,2,0,0,1,2-2h6a2,2,0,0,1,2,2v4" transform="translate(-130 -55)" fill="none" stroke="#fff" stroke-linecap="round" stroke-linejoin="round" stroke-width="2"/>
    <rect id="Rectangle_2817" data-name="Rectangle 2817" width="10.118" height="6.324" transform="matrix(0.935, 0.355, -0.355, 0.935, 7.394, 17.748)" fill="none" stroke="#fff" stroke-linecap="round" stroke-linejoin="round" stroke-width="2"/>
    <path id="Path_2881" data-name="Path 2881" d="M156.614,73.9l-8.528-2.575,6.494-6.1Z" transform="translate(-130 -55)" fill="none" stroke="#fff" stroke-linecap="round" stroke-linejoin="round" stroke-width="2"/>
    <circle id="Ellipse_438" data-name="Ellipse 438" cx="3" cy="3" r="3" transform="translate(20 24)" fill="none" stroke="#fff" stroke-linecap="round" stroke-linejoin="round" stroke-width="2"/>
  </g>
</svg>
